<svg width="140" height="159" viewBox="0 0 140 159" fill="none" xmlns="http://www.w3.org/2000/svg">
<path fill-rule="evenodd" clip-rule="evenodd" d="M130.039 148.854H129.039V157V158H128.039H94.0279H93.0279V157V98.1312V97.1312H92.0279H46.1566V98.1312H92.0279V158V159H93.0279H129.039H130.039V158V148.854ZM38.0109 148.854V158V159H37.0109H1H0V158V10.1456V9.14563H1H10.1456V10.1456H2H1V11.1456V157V158H2H36.0109H37.0109V157V148.854H38.0109ZM102.174 10.1456H94.0279H93.0279V11.1456V58.9202H92.0279V10.1456V9.14563H93.0279H102.174V10.1456Z" fill="black"/>
<path d="M138.539 1V0.5H138.039H102.028H101.528V1V58.4202H46.5109V1V0.5H46.0109H10H9.5V1V148.854V149.354H10H46.0109H46.5109V148.854V88.4855H101.528V148.854V149.354H102.028H138.039H138.539V148.854V1Z" stroke="black"/>
</svg>
