<svg width="140" height="159" viewBox="0 0 140 159" fill="none" xmlns="http://www.w3.org/2000/svg">
<path d="M129.539 10.1456V9.64563H129.039H93.0279H92.5279V10.1456V67.5658H37.5109V10.1456V9.64563H37.0109H1H0.5V10.1456V158V158.5H1H37.0109H37.5109V158V97.6312H92.5279V158V158.5H93.0279H129.039H129.539V158V10.1456Z" stroke="black"/>
<path d="M138.684 1V0.5H138.184H102.174H101.674V1V58.4202H46.6566V1V0.5H46.1566H10.1456H9.64563V1V148.854V149.354H10.1456H46.1566H46.6566V148.854V88.4855H101.674V148.854V149.354H102.174H138.184H138.684V148.854V1Z" stroke="black"/>
</svg>
